<?xml version="1.0" encoding="UTF-8"?>
<svg xmlns="http://www.w3.org/2000/svg" xmlns:xlink="http://www.w3.org/1999/xlink" width="1024pt" height="768pt" viewBox="0 0 1024 768" version="1.1">
<g id="surface1">
<rect x="0" y="0" width="1024" height="768" style="fill:rgb(23.529412%,23.529412%,23.529412%);fill-opacity:1;stroke:none;"/>
<rect x="0" y="0" width="1024" height="768" style="fill:rgb(0%,0%,0%);fill-opacity:1;stroke:none;"/>
<rect x="0" y="0" width="1024" height="768" style="fill:rgb(0%,0%,0%);fill-opacity:1;stroke:none;"/>
<path style=" stroke:none;fill-rule:evenodd;fill:rgb(100%,100%,100%);fill-opacity:1;" d="M 561.183594 566.789062 C 504.648438 691.027344 456.109375 700.171875 417.496094 700.566406 C 378.886719 700.957031 333.097656 674.320312 296.933594 671.089844 C 260.769531 667.855469 230.035156 694.109375 200.511719 681.167969 C 170.988281 668.226562 145.378906 616.925781 119.792969 593.441406 C 94.207031 569.960938 67.996094 561.730469 46.996094 540.265625 C 26 518.796875 22.300781 483.335938 -6.195312 464.648438 C -34.691406 445.964844 -106.472656 454.992188 -123.976562 428.144531 C -141.484375 401.296875 -113.027344 341.9375 -111.222656 303.570312 C -109.421875 265.199219 -117.328125 233.238281 -113.164062 197.933594 C -108.996094 162.625 -112.035156 118.953125 -86.234375 91.734375 C -60.433594 64.519531 7.9375 54.183594 41.640625 34.636719 C 75.34375 15.085938 89.074219 -8.785156 115.984375 -25.550781 C 142.890625 -42.316406 173.351562 -53.195312 203.097656 -65.957031 C 232.84375 -78.71875 261.921875 -107.558594 294.460938 -102.117188 C 326.996094 -96.671875 363.101562 -35.578125 398.320312 -33.289062 C 433.539062 -31 481.75 -106.339844 505.785156 -88.378906 C 529.816406 -70.417969 527.066406 36.132812 542.515625 74.472656 C 557.964844 112.808594 584.503906 116.230469 598.480469 141.648438 C 612.457031 167.070312 611.6875 200.164062 626.375 226.996094 C 641.0625 253.828125 680.710938 273.390625 686.609375 302.644531 C 692.507812 331.898438 660.058594 367.882812 661.757812 402.515625 C 663.460938 437.144531 713.570312 483.050781 696.804688 510.429688 C 680.042969 537.808594 589.21875 540.402344 561.183594 566.789062 C 533.148438 593.171875 552.546875 646.433594 528.597656 668.730469 Z M 561.183594 566.789062 "/>
</g>
</svg>
