<?xml version="1.0" encoding="UTF-8"?>
<svg xmlns="http://www.w3.org/2000/svg" xmlns:xlink="http://www.w3.org/1999/xlink" width="1024pt" height="768pt" viewBox="0 0 1024 768" version="1.1">
<g id="surface1">
<rect x="0" y="0" width="1024" height="768" style="fill:rgb(23.529412%,23.529412%,23.529412%);fill-opacity:1;stroke:none;"/>
<rect x="0" y="0" width="1024" height="768" style="fill:rgb(0%,0%,0%);fill-opacity:1;stroke:none;"/>
<rect x="0" y="0" width="1024" height="768" style="fill:rgb(0%,0%,0%);fill-opacity:1;stroke:none;"/>
<path style="fill:none;stroke-width:1;stroke-linecap:butt;stroke-linejoin:miter;stroke:rgb(100%,100%,100%);stroke-opacity:1;stroke-miterlimit:10;" d="M 327.886719 353.023438 L 327.457031 353.957031 L 327.117188 355.019531 L 326.859375 356.195312 L 326.671875 357.464844 L 326.542969 358.8125 L 326.453125 360.214844 L 326.398438 361.660156 L 326.359375 363.125 L 326.328125 364.597656 L 326.292969 366.050781 L 326.238281 367.472656 L 326.148438 368.84375 L 326.019531 370.140625 L 325.832031 371.355469 L 325.574219 372.460938 L 325.238281 373.441406 L 324.804688 374.277344 L 324.269531 374.953125 L 323.613281 375.453125 L 322.839844 375.773438 L 321.960938 375.941406 L 320.992188 375.976562 L 319.941406 375.882812 L 318.816406 375.679688 L 317.628906 375.378906 L 316.386719 374.992188 L 315.097656 374.535156 L 313.773438 374.019531 L 312.425781 373.460938 L 311.0625 372.867188 L 308.320312 371.640625 L 306.96875 371.03125 L 305.632812 370.445312 L 304.332031 369.890625 L 303.074219 369.386719 L 301.863281 368.941406 L 300.71875 368.574219 L 299.640625 368.289062 L 298.609375 368.085938 L 297.605469 367.929688 L 296.621094 367.820312 L 295.652344 367.746094 L 294.707031 367.703125 L 293.777344 367.6875 L 292.867188 367.683594 L 291.96875 367.695312 L 291.089844 367.707031 L 290.21875 367.714844 L 289.363281 367.714844 L 288.519531 367.695312 L 287.683594 367.652344 L 286.855469 367.574219 L 286.039062 367.464844 L 285.226562 367.304688 L 284.421875 367.097656 L 283.621094 366.828125 L 282.820312 366.496094 L 282.027344 366.089844 L 281.242188 365.597656 L 280.476562 365.019531 L 279.730469 364.359375 L 278.996094 363.628906 L 278.277344 362.84375 L 277.566406 362.003906 L 276.871094 361.128906 L 276.179688 360.21875 L 275.496094 359.292969 L 274.816406 358.351562 L 274.136719 357.414062 L 273.460938 356.484375 L 272.785156 355.570312 L 272.105469 354.6875 L 271.421875 353.84375 L 270.730469 353.046875 L 270.03125 352.304688 L 269.324219 351.632812 L 268.601562 351.039062 L 267.867188 350.53125 L 267.117188 350.113281 L 266.351562 349.777344 L 265.574219 349.515625 L 264.785156 349.320312 L 263.988281 349.179688 L 263.183594 349.085938 L 262.375 349.027344 L 261.5625 349 L 260.75 348.992188 L 259.9375 348.992188 L 259.132812 349 L 258.328125 348.996094 L 257.535156 348.976562 L 256.75 348.929688 L 255.976562 348.851562 L 255.21875 348.730469 L 254.476562 348.558594 L 253.75 348.324219 L 253.046875 348.019531 L 252.363281 347.636719 L 251.691406 347.1875 L 251.023438 346.695312 L 250.355469 346.164062 L 249.695312 345.59375 L 249.039062 344.988281 L 248.390625 344.351562 L 247.753906 343.683594 L 247.125 342.992188 L 246.511719 342.273438 L 245.910156 341.53125 L 245.324219 340.769531 L 244.757812 339.992188 L 244.207031 339.203125 L 243.679688 338.402344 L 243.171875 337.589844 L 242.691406 336.773438 L 242.230469 335.953125 L 241.800781 335.132812 L 241.398438 334.3125 L 241.027344 333.5 L 240.691406 332.675781 L 240.390625 331.828125 L 240.121094 330.964844 L 239.886719 330.078125 L 239.675781 329.179688 L 239.492188 328.265625 L 239.332031 327.339844 L 239.191406 326.402344 L 239.066406 325.460938 L 238.960938 324.511719 L 238.863281 323.558594 L 238.777344 322.605469 L 238.699219 321.652344 L 238.625 320.703125 L 238.550781 319.757812 L 238.476562 318.820312 L 238.398438 317.890625 L 238.316406 316.972656 L 238.222656 316.066406 L 238.121094 315.179688 L 238.007812 314.300781 L 237.886719 313.425781 L 237.757812 312.558594 L 237.628906 311.695312 L 237.5 310.835938 L 237.367188 309.980469 L 237.117188 308.277344 L 237 307.433594 L 236.890625 306.589844 L 236.789062 305.75 L 236.699219 304.914062 L 236.625 304.078125 L 236.566406 303.246094 L 236.523438 302.414062 L 236.496094 301.585938 L 236.492188 300.757812 L 236.511719 299.929688 L 236.558594 299.101562 L 236.628906 298.273438 L 236.726562 297.449219 L 236.859375 296.625 L 237.015625 295.800781 L 237.203125 294.980469 L 237.410156 294.164062 L 237.636719 293.347656 L 237.882812 292.53125 L 238.144531 291.71875 L 238.414062 290.910156 L 238.699219 290.097656 L 238.988281 289.292969 L 239.28125 288.488281 L 239.578125 287.683594 L 240.164062 286.082031 L 240.449219 285.28125 L 240.726562 284.484375 L 240.988281 283.691406 L 241.242188 282.898438 L 241.472656 282.105469 L 241.699219 281.316406 L 241.921875 280.539062 L 242.140625 279.765625 L 242.359375 279 L 242.578125 278.238281 L 243.007812 276.722656 L 243.429688 275.214844 L 243.636719 274.460938 L 243.84375 273.703125 L 244.25 272.179688 L 244.453125 271.410156 L 244.652344 270.636719 L 244.847656 269.855469 L 245.042969 269.066406 L 245.238281 268.265625 L 245.429688 267.457031 L 245.621094 266.636719 L 245.796875 265.796875 L 245.941406 264.933594 L 246.066406 264.046875 L 246.171875 263.140625 L 246.265625 262.222656 L 246.347656 261.292969 L 246.425781 260.355469 L 246.503906 259.414062 L 246.585938 258.472656 L 246.675781 257.535156 L 246.777344 256.601562 L 246.902344 255.675781 L 247.042969 254.765625 L 247.214844 253.875 L 247.417969 253 L 247.65625 252.148438 L 247.933594 251.324219 L 248.253906 250.535156 L 248.628906 249.773438 L 249.054688 249.054688 L 249.527344 248.355469 L 250.042969 247.671875 L 250.597656 247 L 251.183594 246.34375 L 251.808594 245.699219 L 252.464844 245.074219 L 253.148438 244.464844 L 253.859375 243.871094 L 254.597656 243.300781 L 255.359375 242.75 L 256.140625 242.21875 L 256.941406 241.707031 L 257.757812 241.222656 L 258.59375 240.761719 L 259.4375 240.328125 L 260.292969 239.917969 L 261.160156 239.535156 L 262.03125 239.183594 L 262.90625 238.859375 L 263.785156 238.566406 L 264.683594 238.324219 L 265.621094 238.144531 L 266.59375 238.019531 L 267.59375 237.949219 L 268.621094 237.917969 L 269.671875 237.925781 L 270.734375 237.960938 L 271.8125 238.019531 L 272.902344 238.09375 L 273.992188 238.175781 L 275.082031 238.261719 L 276.167969 238.339844 L 277.246094 238.410156 L 278.3125 238.457031 L 279.363281 238.480469 L 280.390625 238.46875 L 281.390625 238.417969 L 282.363281 238.324219 L 283.300781 238.175781 L 284.199219 237.964844 L 285.058594 237.683594 L 285.886719 237.328125 L 286.683594 236.90625 L 287.453125 236.433594 L 288.199219 235.910156 L 288.925781 235.355469 L 289.632812 234.769531 L 290.332031 234.164062 L 291.019531 233.554688 L 291.699219 232.941406 L 292.378906 232.339844 L 293.054688 231.757812 L 293.738281 231.203125 L 294.429688 230.683594 L 295.132812 230.214844 L 295.851562 229.800781 L 296.585938 229.449219 L 297.34375 229.175781 L 298.128906 228.984375 L 298.9375 228.886719 L 299.777344 228.882812 L 300.628906 228.964844 L 301.5 229.125 L 302.386719 229.355469 L 303.289062 229.644531 L 304.199219 229.988281 L 305.121094 230.378906 L 306.050781 230.808594 L 306.988281 231.265625 L 307.929688 231.746094 L 308.875 232.242188 L 309.824219 232.742188 L 310.769531 233.242188 L 311.71875 233.730469 L 312.660156 234.203125 L 313.601562 234.648438 L 314.535156 235.0625 L 315.460938 235.433594 L 316.375 235.753906 L 317.28125 236.019531 L 318.183594 236.222656 L 319.097656 236.371094 L 320.019531 236.476562 L 320.949219 236.539062 L 321.882812 236.570312 L 322.8125 236.578125 L 323.746094 236.566406 L 324.679688 236.546875 L 325.605469 236.523438 L 326.523438 236.503906 L 327.433594 236.5 L 328.332031 236.511719 L 329.21875 236.554688 L 330.089844 236.628906 L 330.945312 236.746094 L 331.78125 236.914062 L 332.597656 237.136719 L 333.386719 237.425781 L 334.152344 237.78125 L 334.890625 238.21875 L 335.59375 238.746094 L 336.257812 239.359375 L 336.886719 240.050781 L 337.484375 240.8125 L 338.054688 241.632812 L 338.601562 242.507812 L 339.132812 243.425781 L 339.648438 244.375 L 340.152344 245.351562 L 340.652344 246.34375 L 341.152344 247.34375 L 341.652344 248.339844 L 342.15625 249.328125 L 342.675781 250.292969 L 343.207031 251.230469 L 343.757812 252.128906 L 344.335938 252.984375 L 344.9375 253.78125 L 345.570312 254.515625 L 346.242188 255.171875 L 346.957031 255.757812 L 347.71875 256.273438 L 348.519531 256.734375 L 349.355469 257.144531 L 350.21875 257.507812 L 351.105469 257.839844 L 352.007812 258.140625 L 352.921875 258.421875 L 353.839844 258.691406 L 354.753906 258.957031 L 355.660156 259.222656 L 356.554688 259.5 L 357.425781 259.796875 L 358.273438 260.117188 L 359.089844 260.46875 L 359.867188 260.863281 L 360.601562 261.304688 L 361.28125 261.804688 L 361.910156 262.367188 L 362.472656 263 L 362.988281 263.699219 L 363.472656 264.445312 L 363.921875 265.242188 L 364.34375 266.078125 L 364.734375 266.953125 L 365.09375 267.863281 L 365.425781 268.804688 L 365.730469 269.773438 L 366.007812 270.765625 L 366.257812 271.773438 L 366.484375 272.800781 L 366.683594 273.835938 L 366.863281 274.875 L 367.015625 275.921875 L 367.148438 276.964844 L 367.257812 278.003906 L 367.347656 279.035156 L 367.417969 280.054688 L 367.464844 281.054688 L 367.5 282.035156 L 367.480469 283.007812 L 367.386719 283.988281 L 367.226562 284.976562 L 367.011719 285.972656 L 366.746094 286.976562 L 366.445312 287.980469 L 366.113281 288.988281 L 365.765625 289.996094 L 365.039062 292.011719 L 364.683594 293.015625 L 364.347656 294.015625 L 364.035156 295.011719 L 363.761719 296 L 363.53125 296.980469 L 363.355469 297.953125 L 363.242188 298.914062 L 363.199219 299.863281 L 363.242188 300.800781 L 363.371094 301.726562 L 363.621094 302.636719 L 363.988281 303.53125 L 364.464844 304.417969 L 365.035156 305.292969 L 365.683594 306.160156 L 366.394531 307.019531 L 367.152344 307.867188 L 367.949219 308.710938 L 368.761719 309.546875 L 369.578125 310.382812 L 370.382812 311.210938 L 371.164062 312.039062 L 371.902344 312.863281 L 372.589844 313.6875 L 373.207031 314.515625 L 373.738281 315.339844 L 374.167969 316.171875 L 374.488281 317.003906 L 374.675781 317.839844 L 374.722656 318.679688 Z M 327.886719 353.023438 "/>
<path style="fill:none;stroke-width:1;stroke-linecap:butt;stroke-linejoin:miter;stroke:rgb(100%,100%,100%);stroke-opacity:1;stroke-miterlimit:10;" d="M 372.242188 438.335938 L 370.691406 439.824219 L 369.25 441.417969 L 367.90625 443.105469 L 366.640625 444.875 L 365.449219 446.714844 L 364.308594 448.609375 L 363.214844 450.554688 L 362.152344 452.539062 L 361.105469 454.542969 L 360.066406 456.5625 L 359.015625 458.585938 L 357.945312 460.597656 L 356.835938 462.585938 L 355.683594 464.542969 L 354.46875 466.457031 L 353.183594 468.316406 L 351.808594 470.109375 L 350.335938 471.824219 L 348.75 473.449219 L 347.078125 475.050781 L 345.359375 476.703125 L 343.59375 478.386719 L 341.785156 480.09375 L 339.933594 481.808594 L 338.042969 483.519531 L 336.109375 485.214844 L 334.136719 486.882812 L 332.128906 488.507812 L 330.085938 490.074219 L 328.007812 491.578125 L 325.898438 493.003906 L 323.757812 494.332031 L 321.589844 495.558594 L 319.390625 496.667969 L 317.167969 497.644531 L 314.921875 498.480469 L 312.652344 499.160156 L 310.359375 499.667969 L 308.046875 500 L 305.675781 500.167969 L 303.222656 500.210938 L 300.691406 500.128906 L 298.097656 499.925781 L 295.445312 499.605469 L 292.75 499.167969 L 290.019531 498.621094 L 287.261719 497.96875 L 284.488281 497.207031 L 281.710938 496.347656 L 278.9375 495.386719 L 276.179688 494.328125 L 273.449219 493.183594 L 270.75 491.945312 L 268.097656 490.621094 L 265.5 489.21875 L 262.964844 487.734375 L 260.507812 486.175781 L 258.132812 484.542969 L 255.855469 482.839844 L 253.691406 480.9375 L 251.632812 478.730469 L 249.675781 476.261719 L 247.800781 473.5625 L 246 470.671875 L 244.257812 467.628906 L 242.5625 464.476562 L 240.902344 461.246094 L 239.261719 457.980469 L 237.628906 454.714844 L 235.996094 451.492188 L 234.34375 448.34375 L 232.660156 445.3125 L 230.933594 442.433594 L 229.15625 439.75 L 227.308594 437.296875 L 225.378906 435.109375 L 223.355469 433.234375 L 221.230469 431.699219 L 218.984375 430.550781 L 216.582031 429.851562 L 214.015625 429.609375 L 211.308594 429.773438 L 208.476562 430.289062 L 205.542969 431.109375 L 202.527344 432.183594 L 199.449219 433.457031 L 196.332031 434.882812 L 193.199219 436.40625 L 190.066406 437.976562 L 186.953125 439.542969 L 183.886719 441.054688 L 180.886719 442.460938 L 177.96875 443.710938 L 175.160156 444.753906 L 172.476562 445.539062 L 169.941406 446.011719 L 167.574219 446.121094 L 165.398438 445.820312 L 163.433594 445.058594 L 161.65625 443.871094 L 160.023438 442.351562 L 158.527344 440.527344 L 157.160156 438.425781 L 155.90625 436.078125 L 154.761719 433.507812 L 153.71875 430.746094 L 152.761719 427.820312 L 151.886719 424.757812 L 151.082031 421.585938 L 150.339844 418.332031 L 149.644531 415.027344 L 148.996094 411.699219 L 148.378906 408.375 L 147.785156 405.078125 L 147.207031 401.84375 L 146.636719 398.691406 L 146.058594 395.660156 L 145.464844 392.765625 L 144.851562 390.046875 L 144.238281 387.425781 L 143.652344 384.820312 L 143.097656 382.226562 L 142.574219 379.644531 L 142.078125 377.074219 L 141.613281 374.515625 L 141.179688 371.972656 L 140.777344 369.4375 L 140.402344 366.917969 L 140.058594 364.410156 L 139.742188 361.917969 L 139.457031 359.433594 L 139.203125 356.964844 L 138.980469 354.507812 L 138.785156 352.0625 L 138.621094 349.628906 L 138.488281 347.210938 L 138.382812 344.800781 L 138.308594 342.40625 L 138.261719 340.023438 L 138.28125 337.65625 L 138.394531 335.304688 L 138.585938 332.972656 L 138.847656 330.65625 L 139.167969 328.351562 L 139.535156 326.0625 L 139.941406 323.785156 L 140.371094 321.519531 L 140.820312 319.265625 L 141.273438 317.023438 L 141.71875 314.792969 L 142.148438 312.566406 L 142.546875 310.351562 L 142.910156 308.144531 L 143.222656 305.941406 L 143.476562 303.742188 L 143.660156 301.550781 L 143.757812 299.359375 L 143.765625 297.175781 L 143.667969 294.992188 L 143.414062 292.804688 L 142.972656 290.613281 L 142.371094 288.421875 L 141.632812 286.226562 L 140.78125 284.035156 L 139.847656 281.847656 L 138.851562 279.664062 L 137.824219 277.488281 L 136.789062 275.324219 L 135.769531 273.167969 L 134.796875 271.027344 L 133.890625 268.902344 L 133.078125 266.792969 L 132.386719 264.703125 L 131.839844 262.636719 L 131.464844 260.59375 L 131.289062 258.574219 L 131.332031 256.582031 L 131.625 254.621094 L 132.191406 252.6875 L 133.101562 250.820312 L 134.382812 249.035156 L 135.992188 247.328125 L 137.886719 245.683594 L 140.019531 244.085938 L 142.355469 242.53125 L 144.847656 241 L 147.453125 239.488281 L 150.128906 237.980469 L 152.835938 236.464844 L 155.53125 234.933594 L 158.167969 233.371094 L 160.707031 231.765625 L 163.105469 230.105469 L 165.320312 228.382812 L 167.308594 226.582031 L 169.03125 224.695312 L 170.4375 222.707031 L 171.492188 220.609375 L 172.152344 218.390625 L 172.339844 215.988281 L 172.046875 213.371094 L 171.335938 210.566406 L 170.257812 207.605469 L 168.871094 204.511719 L 167.234375 201.3125 L 165.402344 198.042969 L 163.4375 194.722656 L 161.394531 191.382812 L 159.328125 188.050781 L 157.296875 184.753906 L 155.355469 181.519531 L 153.566406 178.375 L 151.984375 175.351562 L 150.667969 172.472656 L 149.671875 169.769531 L 149.050781 167.265625 L 148.867188 164.992188 L 149.179688 162.976562 L 150.039062 161.246094 L 151.449219 159.808594 L 153.339844 158.632812 L 155.664062 157.699219 L 158.382812 156.980469 L 161.445312 156.453125 L 164.808594 156.09375 L 168.429688 155.878906 L 172.261719 155.78125 L 176.257812 155.785156 L 180.375 155.855469 L 184.570312 155.976562 L 188.792969 156.121094 L 193.003906 156.261719 L 197.15625 156.382812 L 201.203125 156.453125 L 205.101562 156.453125 L 208.804688 156.359375 L 212.269531 156.140625 L 215.453125 155.78125 L 218.304688 155.253906 L 220.90625 154.621094 L 223.378906 153.96875 L 225.730469 153.289062 L 227.972656 152.582031 L 230.113281 151.847656 L 232.164062 151.085938 L 234.132812 150.289062 L 236.027344 149.460938 L 237.867188 148.601562 L 239.652344 147.703125 L 241.398438 146.769531 L 243.113281 145.796875 L 244.808594 144.785156 L 246.492188 143.730469 L 248.175781 142.632812 L 249.867188 141.488281 L 251.582031 140.300781 L 253.320312 139.0625 L 255.101562 137.773438 L 256.933594 136.4375 L 258.765625 134.933594 L 260.550781 133.171875 L 262.292969 131.191406 L 264 129.03125 L 265.679688 126.730469 L 267.34375 124.320312 L 268.992188 121.84375 L 270.636719 119.339844 L 272.285156 116.839844 L 273.941406 114.386719 L 275.617188 112.019531 L 277.3125 109.773438 L 279.042969 107.6875 L 280.8125 105.796875 L 282.628906 104.140625 L 284.5 102.757812 L 286.429688 101.683594 L 288.429688 100.960938 L 290.503906 100.625 L 292.664062 100.710938 L 294.910156 101.300781 L 297.246094 102.421875 L 299.664062 104.011719 L 302.152344 106.019531 L 304.703125 108.382812 L 307.308594 111.050781 L 309.964844 113.964844 L 312.65625 117.070312 L 315.378906 120.3125 L 318.125 123.632812 L 320.882812 126.972656 L 323.648438 130.285156 L 326.414062 133.503906 L 329.167969 136.578125 L 331.902344 139.453125 L 334.609375 142.070312 L 337.28125 144.375 L 339.910156 146.3125 L 342.488281 147.820312 L 345.007812 148.847656 L 347.515625 149.359375 L 350.0625 149.390625 L 352.640625 148.996094 L 355.238281 148.230469 L 357.847656 147.152344 L 360.457031 145.820312 L 363.0625 144.285156 L 365.652344 142.605469 L 368.214844 140.835938 L 370.742188 139.035156 L 373.226562 137.253906 L 375.660156 135.550781 L 378.027344 133.984375 L 380.328125 132.609375 L 382.542969 131.480469 L 384.667969 130.652344 L 386.695312 130.183594 L 388.617188 130.128906 L 390.417969 130.542969 L 392.09375 131.484375 L 393.59375 132.976562 L 394.890625 134.96875 L 396.015625 137.414062 L 396.980469 140.261719 L 397.8125 143.453125 L 398.53125 146.941406 L 399.164062 150.675781 L 399.726562 154.597656 L 400.246094 158.664062 L 400.742188 162.816406 L 401.238281 167.003906 L 401.753906 171.175781 L 402.316406 175.277344 L 402.941406 179.265625 L 403.65625 183.078125 L 404.480469 186.667969 L 405.4375 189.980469 L 406.546875 192.96875 L 407.835938 195.578125 L 409.324219 197.753906 L 411.003906 199.539062 L 412.84375 201.019531 L 414.835938 202.230469 L 416.953125 203.199219 L 419.1875 203.953125 L 421.523438 204.519531 L 423.941406 204.933594 L 426.425781 205.21875 L 428.964844 205.40625 L 431.539062 205.523438 L 434.136719 205.597656 L 436.738281 205.664062 L 439.328125 205.746094 L 441.890625 205.875 L 444.414062 206.082031 L 446.878906 206.390625 L 449.269531 206.832031 L 451.574219 207.4375 L 453.773438 208.234375 L 455.851562 209.253906 L 457.878906 210.417969 L 459.933594 211.640625 L 462.007812 212.921875 L 464.085938 214.261719 L 466.164062 215.65625 L 468.222656 217.109375 L 470.261719 218.617188 L 472.261719 220.183594 L 474.21875 221.804688 L 476.121094 223.480469 L 477.953125 225.210938 L 479.714844 226.996094 L 481.386719 228.835938 L 482.964844 230.730469 L 484.433594 232.679688 L 485.785156 234.683594 L 487.011719 236.738281 L 488.097656 238.84375 L 489.035156 241.003906 L 489.816406 243.21875 L 490.449219 245.519531 L 490.953125 247.941406 L 491.332031 250.46875 L 491.59375 253.089844 L 491.742188 255.796875 L 491.785156 258.578125 L 491.722656 261.417969 L 491.5625 264.308594 L 491.304688 267.242188 L 490.964844 270.199219 L 490.535156 273.175781 L 490.03125 276.152344 L 489.453125 279.128906 L 488.804688 282.082031 L 488.09375 285.007812 L 487.324219 287.894531 L 486.5 290.730469 L 485.628906 293.5 L 484.714844 296.199219 L 483.757812 298.808594 L 482.6875 301.363281 L 481.441406 303.886719 L 480.035156 306.386719 L 478.484375 308.859375 L 476.820312 311.3125 L 475.050781 313.738281 L 473.203125 316.144531 L 471.296875 318.53125 L 469.347656 320.894531 L 467.378906 323.238281 L 465.410156 325.566406 L 463.457031 327.875 L 461.546875 330.167969 L 459.691406 332.441406 L 457.914062 334.703125 L 456.238281 336.953125 L 454.675781 339.1875 L 453.253906 341.40625 L 451.992188 343.617188 L 450.902344 345.820312 Z M 372.242188 438.335938 "/>
<path style="fill:none;stroke-width:1;stroke-linecap:butt;stroke-linejoin:miter;stroke:rgb(100%,100%,100%);stroke-opacity:1;stroke-miterlimit:10;" d="M 461.917969 591.117188 L 458.324219 593.433594 L 454.730469 595.761719 L 451.132812 598.089844 L 447.527344 600.410156 L 443.910156 602.714844 L 440.28125 604.996094 L 436.632812 607.246094 L 432.964844 609.453125 L 429.273438 611.609375 L 425.558594 613.707031 L 421.808594 615.738281 L 418.03125 617.695312 L 414.214844 619.566406 L 410.355469 621.347656 L 406.457031 623.027344 L 402.511719 624.601562 L 398.519531 626.054688 L 394.472656 627.382812 L 390.371094 628.574219 L 386.195312 629.578125 L 381.945312 630.359375 L 377.621094 630.941406 L 373.238281 631.351562 L 368.792969 631.609375 L 364.300781 631.738281 L 359.765625 631.765625 L 355.195312 631.71875 L 350.597656 631.613281 L 345.980469 631.476562 L 341.347656 631.335938 L 336.710938 631.210938 L 332.074219 631.132812 L 327.449219 631.117188 L 322.835938 631.191406 L 318.246094 631.378906 L 313.6875 631.707031 L 309.167969 632.195312 L 304.691406 632.871094 L 300.265625 633.757812 L 295.886719 634.925781 L 291.539062 636.410156 L 287.214844 638.164062 L 282.917969 640.148438 L 278.636719 642.316406 L 274.375 644.632812 L 270.125 647.046875 L 265.882812 649.523438 L 261.652344 652.019531 L 257.421875 654.488281 L 253.1875 656.890625 L 248.953125 659.183594 L 244.714844 661.328125 L 240.460938 663.277344 L 236.195312 664.988281 L 231.910156 666.421875 L 227.609375 667.535156 L 223.28125 668.285156 L 218.925781 668.632812 L 214.539062 668.53125 L 210.078125 668.050781 L 205.515625 667.296875 L 200.859375 666.28125 L 196.136719 665.015625 L 191.355469 663.507812 L 186.535156 661.773438 L 181.691406 659.828125 L 176.84375 657.671875 L 172.007812 655.328125 L 167.195312 652.804688 L 162.425781 650.109375 L 157.71875 647.257812 L 153.085938 644.261719 L 148.546875 641.132812 L 144.117188 637.878906 L 139.808594 634.515625 L 135.644531 631.054688 L 131.640625 627.507812 L 127.808594 623.882812 L 124.167969 620.199219 L 120.710938 616.328125 L 117.40625 612.175781 L 114.242188 607.757812 L 111.21875 603.109375 L 108.316406 598.257812 L 105.527344 593.226562 L 102.84375 588.050781 L 100.253906 582.753906 L 97.75 577.363281 L 95.320312 571.910156 L 92.957031 566.417969 L 90.648438 560.917969 L 88.382812 555.4375 L 86.15625 550.003906 L 83.949219 544.644531 L 81.761719 539.386719 L 79.582031 534.261719 L 77.394531 529.296875 L 75.191406 524.519531 L 72.96875 519.953125 L 70.816406 515.519531 L 68.828125 511.113281 L 66.984375 506.734375 L 65.253906 502.398438 L 63.617188 498.101562 L 62.050781 493.855469 L 60.535156 489.660156 L 59.039062 485.523438 L 57.546875 481.449219 L 56.03125 477.445312 L 54.472656 473.515625 L 52.84375 469.664062 L 51.121094 465.894531 L 49.285156 462.21875 L 47.3125 458.632812 L 45.175781 455.148438 L 42.855469 451.769531 L 40.328125 448.5 L 37.570312 445.34375 L 34.554688 442.308594 L 31.132812 439.503906 L 27.203125 437.015625 L 22.839844 434.800781 L 18.105469 432.820312 L 13.066406 431.035156 L 7.792969 429.40625 L 2.355469 427.894531 L -3.1875 426.460938 L -8.757812 425.0625 L -14.296875 423.667969 L -19.734375 422.230469 L -25.003906 420.714844 L -30.035156 419.082031 L -34.761719 417.292969 L -39.117188 415.304688 L -43.035156 413.078125 L -46.445312 410.578125 L -49.28125 407.761719 L -51.476562 404.59375 L -52.964844 401.03125 L -53.675781 397.058594 L -53.640625 392.707031 L -52.9375 388.015625 L -51.632812 383.023438 L -49.808594 377.761719 L -47.53125 372.265625 L -44.875 366.578125 L -41.921875 360.730469 L -38.738281 354.761719 L -35.402344 348.703125 L -31.984375 342.597656 L -28.5625 336.480469 L -25.210938 330.382812 L -21.996094 324.347656 L -19.003906 318.40625 L -16.296875 312.597656 L -13.957031 306.953125 L -12.054688 301.515625 L -10.660156 296.320312 L -9.859375 291.402344 L -9.652344 286.691406 L -9.964844 282.089844 L -10.738281 277.585938 L -11.902344 273.179688 L -13.402344 268.863281 L -15.171875 264.628906 L -17.152344 260.46875 L -19.277344 256.378906 L -21.484375 252.351562 L -23.714844 248.382812 L -25.90625 244.460938 L -27.992188 240.582031 L -29.914062 236.738281 L -31.605469 232.925781 L -33.011719 229.136719 L -34.0625 225.363281 L -34.699219 221.601562 L -34.859375 217.84375 L -34.480469 214.082031 L -33.5 210.308594 L -31.835938 206.601562 L -29.496094 203.019531 L -26.558594 199.546875 L -23.09375 196.167969 L -19.179688 192.859375 L -14.894531 189.613281 L -10.308594 186.402344 L -5.5 183.214844 L -0.542969 180.03125 L 4.484375 176.835938 L 9.511719 173.605469 L 14.460938 170.332031 L 19.253906 166.988281 L 23.820312 163.5625 L 28.082031 160.039062 L 31.964844 156.394531 L 35.394531 152.613281 L 38.289062 148.675781 L 40.582031 144.570312 L 42.191406 140.277344 L 42.996094 135.671875 L 42.976562 130.675781 L 42.234375 125.347656 L 40.871094 119.734375 L 38.992188 113.890625 L 36.6875 107.871094 L 34.0625 101.722656 L 31.21875 95.507812 L 28.253906 89.273438 L 25.269531 83.070312 L 22.367188 76.957031 L 19.640625 70.980469 L 17.195312 65.195312 L 15.128906 59.660156 L 13.542969 54.417969 L 12.535156 49.527344 L 12.210938 45.042969 L 12.664062 41.011719 L 14 37.488281 L 16.3125 34.527344 L 19.628906 32.152344 L 23.847656 30.308594 L 28.882812 28.957031 L 34.644531 28.042969 L 41.050781 27.519531 L 48.011719 27.339844 L 55.441406 27.453125 L 63.257812 27.8125 L 71.375 28.371094 L 79.703125 29.082031 L 88.15625 29.894531 L 96.648438 30.757812 L 105.097656 31.628906 L 113.414062 32.457031 L 121.511719 33.191406 L 129.308594 33.789062 L 136.710938 34.199219 L 143.640625 34.375 L 150.007812 34.261719 L 155.726562 33.820312 L 160.941406 33.152344 L 165.867188 32.394531 L 170.527344 31.550781 L 174.945312 30.632812 L 179.144531 29.640625 L 183.144531 28.582031 L 186.96875 27.460938 L 190.640625 26.285156 L 194.183594 25.054688 L 197.617188 23.777344 L 200.960938 22.457031 L 204.246094 21.101562 L 207.492188 19.714844 L 210.714844 18.300781 L 213.945312 16.867188 L 217.203125 15.417969 L 220.507812 13.953125 L 223.886719 12.488281 L 227.359375 11.019531 L 230.945312 9.554688 L 234.574219 7.984375 L 238.15625 6.214844 L 241.703125 4.273438 L 245.210938 2.195312 L 248.695312 0.0117188 L 252.15625 -2.25 L 255.601562 -4.554688 L 259.039062 -6.878906 L 262.476562 -9.179688 L 265.914062 -11.4375 L 269.363281 -13.617188 L 272.828125 -15.683594 L 276.316406 -17.613281 L 279.835938 -19.371094 L 283.386719 -20.925781 L 286.980469 -22.25 L 290.621094 -23.308594 L 294.316406 -24.074219 L 298.070312 -24.511719 L 301.890625 -24.589844 L 305.792969 -24.304688 L 309.777344 -23.675781 L 313.835938 -22.730469 L 317.960938 -21.503906 L 322.140625 -20.019531 L 326.367188 -18.304688 L 330.632812 -16.390625 L 334.921875 -14.304688 L 339.234375 -12.074219 L 343.554688 -9.726562 L 347.871094 -7.296875 L 352.179688 -4.804688 L 356.46875 -2.28125 L 360.730469 0.242188 L 364.953125 2.742188 L 369.128906 5.183594 L 373.25 7.546875 L 377.300781 9.796875 L 381.277344 11.90625 L 385.171875 13.847656 L 388.992188 15.6875 L 392.765625 17.507812 L 396.492188 19.304688 L 400.179688 21.089844 L 403.824219 22.859375 L 407.433594 24.617188 L 411.011719 26.371094 L 414.554688 28.113281 L 418.074219 29.851562 L 421.566406 31.589844 L 425.035156 33.328125 L 428.488281 35.070312 L 431.921875 36.820312 L 435.34375 38.574219 L 438.757812 40.339844 L 442.160156 42.121094 L 445.558594 43.914062 L 448.957031 45.726562 L 452.359375 47.554688 L 455.761719 49.410156 L 459.1875 51.242188 L 462.652344 53.019531 L 466.140625 54.75 L 469.648438 56.449219 L 473.167969 58.121094 L 476.6875 59.789062 L 480.199219 61.453125 L 483.695312 63.132812 L 487.171875 64.832031 L 490.613281 66.570312 L 494.015625 68.355469 L 497.371094 70.203125 L 500.667969 72.117188 L 503.898438 74.113281 L 507.054688 76.203125 L 510.128906 78.398438 L 513.113281 80.710938 L 516 83.152344 L 518.777344 85.734375 L 521.441406 88.464844 L 523.890625 91.417969 L 526.0625 94.628906 L 527.992188 98.070312 L 529.71875 101.710938 L 531.28125 105.519531 L 532.710938 109.464844 L 534.046875 113.515625 L 535.328125 117.640625 L 536.589844 121.8125 L 537.867188 126 L 539.203125 130.167969 L 540.632812 134.292969 L 542.1875 138.335938 L 543.914062 142.273438 L 545.839844 146.070312 L 548.007812 149.695312 L 550.457031 153.121094 L 553.21875 156.316406 L 556.332031 159.25 L 559.832031 161.886719 L 563.941406 164.136719 L 568.78125 165.960938 L 574.257812 167.40625 L 580.269531 168.535156 L 586.71875 169.398438 L 593.515625 170.054688 L 600.550781 170.550781 L 607.734375 170.949219 L 614.96875 171.300781 L 622.152344 171.664062 L 629.191406 172.085938 L 635.984375 172.628906 L 642.433594 173.34375 L 648.445312 174.289062 L 653.917969 175.511719 L 658.757812 177.074219 L 662.863281 179.03125 L 666.136719 181.429688 L 668.484375 184.332031 L 669.804688 187.789062 L 669.984375 191.835938 L 669.042969 196.4375 L 667.097656 201.535156 L 664.265625 207.078125 L 660.652344 213.007812 L 656.378906 219.277344 L 651.554688 225.828125 L 646.300781 232.605469 L 640.722656 239.558594 L 634.9375 246.628906 L 629.0625 253.765625 L 623.210938 260.914062 L 617.492188 268.019531 L 612.027344 275.027344 L 606.921875 281.886719 L 602.300781 288.539062 L 598.265625 294.933594 L 594.941406 301.015625 L 592.433594 306.730469 L 590.863281 312.023438 L 590.109375 316.960938 L 589.949219 321.65625 L 590.328125 326.132812 L 591.1875 330.414062 L 592.476562 334.523438 L 594.148438 338.480469 L 596.140625 342.308594 L 598.402344 346.027344 L 600.882812 349.660156 L 603.523438 353.234375 L 606.277344 356.765625 L 609.085938 360.277344 L 611.898438 363.792969 L 614.660156 367.332031 L 617.316406 370.921875 L 619.816406 374.582031 L 622.105469 378.332031 L 624.128906 382.199219 L 625.832031 386.199219 L 627.167969 390.363281 Z M 461.917969 591.117188 "/>
</g>
</svg>
